PathFileType	4	(X/Y/Z)	C:/Users/beibeiliu/ov580/test_trc/User1\sequence.16_training_dense_right.trc
DataRate	CameraRate	NumFrames	NumMarkers	Units	OrigDataRate	OrigDataStartFrame	OrigNumFrames
120	120	12	19	mm	120	34	268
Frame#	Time	ThumbCMC			ThumbMCP			ThumbIP			ThumbTip			IndexMCP			IndexPIP			IndexTip			MiddleMCP			MiddlePIP			MiddleTip			RingMCP			RingPIP			RingTip			PinkyMCP			PinkyPIP			PinkyTip			BackHand1			BackHand2			BackHand3	
		X0	Y0	Z0	X1	Y1	Z1	X2	Y2	Z2	X3	Y3	Z3	X4	Y4	Z4	X5	Y5	Z5	X6	Y6	Z6	X7	Y7	Z7	X8	Y8	Z8	X9	Y9	Z9	X10	Y10	Z10	X11	Y11	Z11	X12	Y12	Z12	X13	Y13	Z13	X14	Y14	Z14	X15	Y15	Z15	X16	Y16	Z16	X17	Y17	Z17	X18	Y18	Z18	
33	0.275	143.738	70.9445	60.0182	123.233	81.487	44.9588	108.372	99.5674	32.1331	92.2777	114.16	26.536	148.118	89.9361	-26.608	144.117	59.1018	-33.9242	147.873	46.923	-0.450569	177.706	80.7984	-29.6251	160.755	47.9695	-33.8898	157.804	36.3946	2.79984	195.601	71.1195	-34.4665	180.259	43.0303	-36.777	177.515	34.0136	-5.77899	228.05	75.1387	-14.7183	236.238	77.5696	-30.1589	249.193	89.9008	-49.9757	209.129	86.6221	31.8813	209.23	74.2387	60.9331	174.39	89.4875	52.2575	
34	0.283333	148.373	75.7957	56.8185	127.316	90.1816	42.2004	117.343	104.374	29.5097	99.0346	121.428	25.4772	158.135	90.538	-26.6947	143.952	58.6376	-32.7323	146.718	47.9023	-1.2972	174.692	79.9292	-33.3622	161.548	49.4392	-34.2139	159.632	39.4201	6.03003	196.774	71.0693	-33.7316	181.242	43.6578	-37.4964	173.192	36.5902	-1.94821	230.255	70.3856	-15.785	239.656	71.7943	-32.0794	250.318	84.4522	-48.7044	213.66	80.4242	30.4295	211.923	69.7018	62.2812	180.516	91.3573	47.9199	
35	0.291667	152.64	78.1391	58.5913	133.911	97.2456	39.6457	122.014	114.657	29.2345	110.927	128.074	20.8154	158.031	92.6537	-30.0114	151.079	62.9675	-34.2731	145.575	50.2191	-2.38593	179.627	77.7954	-35.9514	161.865	48.3645	-33.3125	161.913	39.0305	4.85776	202.374	67.2227	-34.4395	176.58	42.5373	-36.4127	175.203	35.5257	-1.44096	233.437	66.0793	-19.1775	238.965	66.1162	-31.3772	254.343	75.4836	-49.6734	215.912	81.2596	29.2233	215.889	66.932	62.9287	189.25	91.2809	47.4881	
36	0.3	157.735	85.1059	54.9317	140.643	98.9434	39.6517	131.59	124.552	25.0092	119.362	137.162	21.3276	166.455	93.0739	-30.682	148.64	66.0254	-34.7689	149.448	52.4607	-2.59613	179.854	79.1793	-35.6263	162.03	51.2325	-33.5091	157.022	43.6449	7.04445	201.998	65.8976	-35.4698	175.933	41.5652	-35.7532	172.683	38.4212	-2.69989	234.089	57.0995	-16.8721	244.932	59.1448	-37.0919	254.143	68.647	-48.0482	218.766	75.6803	26.4098	218.321	67.6498	56.9308	193.403	90.3266	48.3985	
37	0.308333	161.825	85.7016	56.6967	145.798	105.035	40.0776	139.668	130.741	24.6163	129.575	144.996	20.45	170.121	94.3472	-28.9	152.265	67.4769	-34.106	144.722	57.7388	0.155801	184.105	76.8529	-36.758	161.587	50.5664	-32.6878	159.317	44.7697	6.98777	203.057	62.5832	-37.227	172.813	41.6919	-35.8926	168.35	39.9484	-4.74946	234.094	49.3488	-20.7263	242.615	50.5061	-38.9863	255.098	59.3594	-54.9725	223.84	70.7801	26.1549	224.296	61.5954	55.1792	199.594	91.4157	42.0595	
38	0.316667	167.413	91.4165	57.6219	154.43	110.048	39.0893	151.088	134.831	23.7642	141.404	148.215	21.5274	171.386	94.3247	-31.1628	148.493	72.5331	-30.9514	147.642	64.0588	3.78808	187.658	74.8496	-36.5696	157.547	57.3149	-33.131	153.461	51.2106	7.71989	198.053	60.1652	-39.3471	171.498	43.1065	-39.1417	164.305	42.8652	-4.64187	229.118	43.3207	-20.2626	235.397	40.3054	-36.3293	247.743	47.3211	-55.1492	223.558	64.7292	24.1982	222.911	59.0191	54.4045	206.73	89.7911	42.4078	
39	0.325	172.903	99.6508	58.0529	165.314	117.28	35.1245	164.308	137.397	20.7423	155.878	153.943	20.5759	178.293	100.906	-26.9155	149.676	82.0515	-31.9991	145.919	72.4657	3.84861	184.795	78.5878	-37.6539	153.938	60.9594	-30.6204	154.051	56.0802	8.54604	196.175	55.64	-40.4769	164.847	47.7925	-37.1645	161.594	47.5114	-2.40664	223.43	39.9103	-22.372	229.979	33.8375	-40.3158	242.04	35.7509	-60.6079	225.43	57.3019	21.9008	223.141	50.101	55.9302	211.486	88.8243	41.6977	
40	0.333333	183.035	102.94	55.5789	174.031	119.546	36.5829	175.619	141.827	22.8732	174.386	159.416	19.5562	183.394	102.54	-28.5955	153.587	85.6499	-30.494	150.823	78.669	7.26875	188.112	74.7911	-36.9649	154.769	69.1423	-31.8366	151.159	63.4807	9.04696	195.437	52.406	-36.7901	160.83	51.7089	-36.1008	156.426	49.4584	-2.90552	216.58	28.9386	-21.8838	220.88	24.8959	-40.8468	232.025	24.3263	-60.2145	222.688	53.5481	21.1699	222.92	46.2803	55.1094	215.066	80.9902	41.0033	
41	0.341667	191.54	101.667	55.6213	184.688	122.594	39.3437	191.827	142.087	20.4868	193.413	163.511	19.305	187.395	103.851	-28.8069	154.597	93.0839	-27.8615	151.045	87.5812	6.03933	184.298	77.4233	-37.6782	151.961	72.465	-28.1233	152.868	68.3948	12.2025	187.13	52.4515	-38.9079	156.557	57.9272	-35.7704	154.826	56.0576	1.81023	206.143	24.5133	-20.1574	209.485	22.9195	-44.0282	217.947	17.1243	-60.5656	220.892	45.5849	22.0786	217.886	40.8742	51.1744	218.627	79.3984	41.203	
42	0.35	201.534	100.142	53.6628	197.843	121.87	37.8881	208.762	142.956	20.2311	214.989	162.446	18.3887	188.675	99.6063	-30.9748	159.119	97.3093	-26.4701	157.034	92.4204	8.26211	182.505	75.194	-37.6035	152.12	79.0022	-27.8781	152.166	77.1202	13.4407	183.465	56.0463	-36.5326	150.995	64.4386	-31.7717	150.042	67.3844	0.494913	194.727	21.4411	-21.4391	195.426	17.5142	-39.2734	203.55	12.4665	-62.25	216.212	40.6066	20.5903	214.716	35.1376	49.8529	222.111	73.6668	35.7752	
43	0.358333	211.108	100.632	53.9728	210.503	119.271	35.7258	222.415	137.066	19.8104	230.561	153.394	15.4197	196.2	97.4895	-29.5771	160.714	105.809	-21.7874	162.372	99.2654	10.5833	186.136	76.3263	-34.1287	153.798	90.3615	-24.1607	154.322	86.5487	13.9127	180.388	55.5614	-36.3606	148.878	72.6637	-28.1802	149.442	70.1185	3.46205	185.378	21.379	-23.3335	184.248	20.7831	-41.1176	188.285	12.691	-62.2157	211.648	37.633	19.8333	212.401	32.4626	49.5552	222.507	64.8475	37.4405	
44	0.366667	216.234	94.476	49.6738	220.821	114.913	35.5701	235.1	130.349	18.8921	247.486	146.022	14.2069	197.335	100.717	-32.0792	168.582	109.714	-23.7391	170.01	98.7577	12.3663	184.762	79.7859	-34.8121	155.232	92.8128	-21.3991	160.295	90.2577	17.0712	173.954	59.5792	-36.7126	148.813	79.6816	-25.8258	151.796	76.7037	5.81156	179.157	28.1641	-22.613	173.874	22.2028	-42.3273	179.005	18.484	-63.4865	208.966	33.849	15.0495	206.893	30.2571	52.5984	224.9	62.5912	36.8931	
